<?xml version="1.0" ?><!DOCTYPE svg  PUBLIC '-//W3C//DTD SVG 1.1//EN'  'http://www.w3.org/Graphics/SVG/1.1/DTD/svg11.dtd'><svg enable-background="new 0 0 99.176 99.176" height="99.176px" id="Layer_1" version="1.1" viewBox="0 0 99.176 99.176" width="99.176px" xml:space="preserve" xmlns="http://www.w3.org/2000/svg" xmlns:xlink="http://www.w3.org/1999/xlink"><g><path d="   M52.446,1.493c-4.673,0-8.738,2.604-10.822,6.441c-0.488-0.06-0.981-0.099-1.485-0.099c-6.797,0-12.307,5.51-12.307,12.307   s5.51,12.307,12.307,12.307c4.673,0,8.738-2.604,10.822-6.44c0.488,0.059,0.981,0.098,1.485,0.098   c6.797,0,12.307-5.51,12.307-12.307S59.243,1.493,52.446,1.493z" fill="#FFFFFF" stroke="#939598" stroke-linecap="round" stroke-linejoin="round" stroke-miterlimit="10" stroke-width="1.3674"/><path d="M52.446,4.8   c-4.304,0-7.897,3.022-8.785,7.059c-1.082-0.46-2.272-0.716-3.522-0.716c-4.971,0-9,4.029-9,9s4.029,9,9,9   c4.304,0,7.897-3.022,8.785-7.06c1.082,0.461,2.272,0.717,3.522,0.717c4.971,0,9-4.029,9-9S57.417,4.8,52.446,4.8z" fill="#FFFFFF" stroke="#939598" stroke-linecap="round" stroke-linejoin="round" stroke-miterlimit="10"/><path d="M73.915,47.274   c-2.3,0-4.178,1.877-4.178,4.178v7.223c0,0.754-0.622,1.383-1.384,1.383c-0.779,0-1.406-0.629-1.406-1.383V43.101   c0-2.314-1.863-4.179-4.177-4.179c-2.3,0-4.175,1.864-4.175,4.179v12.781c0,0.766-0.629,1.383-1.387,1.383   c-0.776,0-1.406-0.617-1.406-1.383V14.737c0-2.301-1.863-4.175-4.179-4.175c-2.312,0-4.176,1.874-4.176,4.175v41.145   c0,0.766-0.626,1.383-1.403,1.383c-0.758,0-1.387-0.617-1.387-1.383V20.319c0-2.313-1.877-4.178-4.177-4.178   c-2.312,0-4.176,1.864-4.176,4.178v49.496l-5.65-7.732c-1.673-2.568-4.939-3.439-7.333-1.953c-2.383,1.504-2.968,4.801-1.32,7.371   c0,0,9.101,13.771,12.984,19.664c3.876,5.904,10.164,10.518,21.923,10.518c19.458,0,21.2-15.021,21.2-19.512V51.452   C78.109,49.151,76.229,47.274,73.915,47.274z" fill="#FFFFFF" stroke="#58595B" stroke-miterlimit="10" stroke-width="3.4835"/><path d="M73.915,47.274   c-2.3,0-4.178,1.877-4.178,4.178v7.223c0,0.754-0.622,1.383-1.384,1.383c-0.779,0-1.406-0.629-1.406-1.383V43.101   c0-2.314-1.863-4.179-4.177-4.179c-2.3,0-4.175,1.864-4.175,4.179v12.781c0,0.766-0.629,1.383-1.387,1.383   c-0.776,0-1.406-0.617-1.406-1.383V14.737c0-2.301-1.863-4.175-4.179-4.175c-2.312,0-4.176,1.874-4.176,4.175v41.145   c0,0.766-0.626,1.383-1.403,1.383c-0.758,0-1.387-0.617-1.387-1.383V20.319c0-2.313-1.877-4.178-4.177-4.178   c-2.312,0-4.176,1.864-4.176,4.178v49.496l-5.65-7.732c-1.673-2.568-4.939-3.439-7.333-1.953c-2.383,1.504-2.968,4.801-1.32,7.371   c0,0,9.101,13.771,12.984,19.664c3.876,5.904,10.164,10.518,21.923,10.518c19.458,0,21.2-15.021,21.2-19.512V51.452   C78.109,49.151,76.229,47.274,73.915,47.274z" fill="#FFFFFF" stroke="#58595B" stroke-linecap="round" stroke-linejoin="round" stroke-miterlimit="10"/></g></svg>